<svg width="30" height="30" viewBox="0 0 30 44" fill="none" xmlns="http://www.w3.org/2000/svg">
<path d="M11.325 40.1899C11.6095 39.4574 11.7452 38.6756 11.7241 37.8901C11.7674 35.713 12.3493 33.5806 13.4176 31.6833C14.4833 29.7891 16.0031 28.1894 17.8402 27.0281C18.5204 26.6633 19.1196 26.1642 19.6014 25.5611C20.0831 24.958 20.4376 24.2634 20.6432 23.5194C20.8488 22.7754 20.9014 21.9974 20.7976 21.2325C20.6939 20.4676 20.4361 19.7317 20.0398 19.0693C19.5104 18.1845 18.7484 17.4591 17.8402 16.9764C17.3195 16.6152 16.8194 16.2262 16.3426 15.8094L15.1477 14.6394C12.9583 12.3377 11.7305 9.28679 11.7153 6.11014C11.7379 5.32444 11.6029 4.54217 11.3183 3.80948C11.0338 3.07678 10.6053 2.4085 10.0583 1.84406C9.5137 1.28025 8.8611 0.831941 8.13945 0.525891C7.41779 0.219841 6.64187 0.0623253 5.85801 0.062745C5.07458 0.0638498 4.29934 0.222064 3.57814 0.52803C2.85694 0.833994 2.20442 1.2815 1.6592 1.84406C1.11314 2.40949 0.685331 3.07815 0.400814 3.81092C0.116296 4.54368 -0.0192206 5.32583 0.00219423 6.11161C0.0149707 7.1316 0.295912 8.13028 0.816802 9.00734C1.3359 9.88291 2.07702 10.6059 2.9652 11.1031C6.56146 13.3787 9.06378 17.7296 9.06378 22.0089C9.0549 25.1579 7.85053 28.1861 5.69421 30.4811L2.97397 32.8971C2.08624 33.3929 1.34476 34.1154 0.824114 34.9929C0.302005 35.8689 0.0226697 36.8692 0.00950684 37.8901C-0.0128634 38.6757 0.122217 39.4579 0.406792 40.1906C0.691368 40.9233 1.11968 41.5916 1.66651 42.1561C2.21119 42.7198 2.86381 43.168 3.58544 43.4741C4.30707 43.7801 5.08294 43.9377 5.86678 43.9375C6.65045 43.9365 7.42597 43.7784 8.14744 43.4725C8.8689 43.1665 9.52166 42.7189 10.0671 42.1561C10.6129 41.5908 11.0405 40.9224 11.325 40.1899Z" fill="white"/>
<path d="M19.269 9.36418C18.6241 8.39602 18.2804 7.25674 18.2804 6.09259C18.2814 4.53318 18.8991 3.03746 19.9988 1.93181C20.955 0.969839 22.2161 0.370604 23.5659 0.236911C24.9156 0.103219 26.2698 0.443403 27.3961 1.1991C28.3609 1.84684 29.112 2.76596 29.5547 3.84036C29.9975 4.91598 30.1131 6.09833 29.887 7.23933C29.6609 8.38034 29.1033 9.42929 28.2838 10.2548C27.4669 11.0781 26.4232 11.6393 25.2859 11.8667C24.1486 12.0941 22.9693 11.9774 21.8986 11.5316C20.8269 11.0853 19.9117 10.331 19.269 9.36418Z" fill="white"/>
<path d="M20.8851 32.9951C21.8489 32.3487 22.9823 32.0035 24.1406 32.0035V32.0006C24.9106 32.0015 25.6728 32.1545 26.3835 32.4506C27.0943 32.7467 27.7395 33.1803 28.2824 33.7263C29.2417 34.6914 29.8384 35.9581 29.9716 37.3123C30.1048 38.6665 29.7664 40.0252 29.0136 41.1587C28.371 42.1269 27.4552 42.8822 26.3826 43.3291C25.3119 43.7749 24.1326 43.8916 22.9953 43.6641C21.858 43.4367 20.8143 42.8756 19.9974 42.0523C19.1776 41.2266 18.6198 40.1774 18.3937 39.0361C18.1676 37.8948 18.2834 36.7122 18.7265 35.6364C19.1692 34.562 19.9204 33.6429 20.8851 32.9951Z" fill="white"/>
</svg>
